# xmcd
#
# Track frame offsets:
#	150
#	11709
#	25980
#	37832
#	50230
#	70572
#	84623
#
# Disc length: 1282 seconds
# Revision: 0
# Processed by: cddbd v1.5.2PL0 Copyright (c) Steve Scherf et al.
# Submitted via: dBpowerAMP V12.0
#
DISCID=52050007
DTITLE=Brand New Strings - Stay Tuned
DYEAR=2012
DGENRE=Country
TTITLE0=Other Side Of Lonesome
TTITLE1=I Washed My Hands In Muddy Water
TTITLE2=Behold The Lamb
TTITLE3=Mustang Minnie
TTITLE4=The Guitar
TTITLE5=That's You
TTITLE6=Silver Dollar Moon
EXTD=
EXTT0=
EXTT1=
EXTT2=
EXTT3=
EXTT4=
EXTT5=
EXTT6=
PLAYORDER=
